<?xml version="1.0" encoding="utf-8"?>
<!-- Generator: Adobe Illustrator 24.0.1, SVG Export Plug-In . SVG Version: 6.00 Build 0)  -->
<svg version="1.1" id="图层_1" xmlns="http://www.w3.org/2000/svg" xmlns:xlink="http://www.w3.org/1999/xlink" x="0px" y="0px"
	 viewBox="0 0 1000 1000" style="enable-background:new 0 0 1000 1000;" xml:space="preserve">
<style type="text/css">
	.st0{fill:#231815;}
</style>
<g>
	<g>
		<g id="XMLID_1_">
			<g>
				<path class="st0" d="M609.48,264.54c0,41.32-12.6,80.92-36.42,114.51c-22.28,31.42-52.7,55.39-88.22,69.57v156.36h-81.03
					l-0.01-196.94c2.48,0.13,4.98,0.2,7.5,0.2c2.52,0,5.02-0.07,7.5-0.19l0.01,181.93h51.03V438.24l4.9-1.81
					c71.62-26.43,119.74-95.51,119.74-171.89c0-98.5-78.14-179.09-175.68-183.03v39.52c-2.48-0.12-4.98-0.19-7.5-0.19
					c-2.52,0-5.02,0.07-7.5,0.2V66.36h7.5C520.57,66.36,609.48,155.26,609.48,264.54z"/>
				<path class="st0" d="M442.65,616.41c23.7,0,42.98,19.28,42.98,42.98c0,23.69-19.28,42.97-42.98,42.97
					c-23.69,0-42.97-19.28-42.97-42.97C399.68,635.69,418.96,616.41,442.65,616.41z M479.63,659.39c0-20.39-16.59-36.98-36.98-36.98
					c-20.39,0-36.97,16.59-36.97,36.98s16.58,36.97,36.97,36.97C463.04,696.36,479.63,679.78,479.63,659.39z"/>
				<path class="st0" d="M414.3,135.87v257.34c-1,0.02-2,0.03-3,0.03s-2-0.01-3-0.03V135.87c1-0.02,2-0.03,3-0.03
					S413.3,135.85,414.3,135.87z"/>
				<path class="st0" d="M411.3,128.34h3v7.53c-1-0.02-2-0.03-3-0.03V128.34z"/>
				<path class="st0" d="M411.3,120.84c2.52,0,5.02,0.07,7.5,0.19c0.57,0.03,1.15,0.06,1.72,0.1c3.05,0.19,6.07,0.48,9.06,0.87
					c1.2,0.15,2.39,0.32,3.58,0.5c0.46,0.07,0.92,0.14,1.38,0.22c0.57,0.09,1.14,0.19,1.71,0.29c0.75,0.13,1.49,0.26,2.22,0.41
					c0.59,0.11,1.17,0.23,1.76,0.35c1.16,0.24,2.33,0.49,3.49,0.76c0.57,0.13,1.15,0.27,1.73,0.41c0.32,0.08,0.64,0.16,0.96,0.24
					c0.52,0.13,1.05,0.27,1.58,0.41c0.61,0.16,1.22,0.32,1.83,0.5c0.52,0.14,1.04,0.28,1.56,0.44c0.31,0.08,0.62,0.17,0.92,0.27
					c0.46,0.13,0.92,0.27,1.38,0.42c6.29,1.94,12.4,4.31,18.29,7.07c0.5,0.23,0.99,0.46,1.48,0.69c1.14,0.55,2.27,1.12,3.39,1.7
					c0.46,0.23,0.92,0.47,1.37,0.71c4.1,2.16,8.09,4.52,11.94,7.07c0.49,0.31,0.97,0.64,1.44,0.96c0.48,0.32,0.96,0.65,1.43,0.98
					c3.32,2.29,6.53,4.73,9.64,7.3c0.89,0.73,1.77,1.47,2.64,2.23c0.12,0.1,0.25,0.21,0.37,0.32c0.74,0.65,1.48,1.31,2.21,1.97
					c0.1,0.08,0.19,0.17,0.28,0.25c1.6,1.47,3.17,2.97,4.71,4.51c1.61,1.61,3.19,3.26,4.73,4.95c0.01,0.01,0.02,0.02,0.03,0.04
					c1.11,1.22,2.2,2.47,3.27,3.72c0.05,0.06,0.1,0.11,0.14,0.17c1.03,1.22,2.04,2.46,3.04,3.71c0.47,0.6,0.93,1.19,1.39,1.79
					c0.32,0.42,0.64,0.84,0.95,1.26c0.35,0.46,0.69,0.92,1.03,1.39c0.35,0.48,0.69,0.95,1.03,1.43c0.52,0.74,1.04,1.48,1.55,2.22
					c0.79,1.15,1.56,2.32,2.31,3.49c0.62,0.97,1.23,1.95,1.83,2.93c2.75,4.52,5.26,9.19,7.5,14.02c0.38,0.81,0.75,1.63,1.11,2.45
					c0.55,1.24,1.09,2.49,1.6,3.75c0.43,1.04,0.84,2.1,1.25,3.16c0.01,0.02,0.02,0.05,0.03,0.08c0.42,1.09,0.82,2.19,1.21,3.3
					c1.4,3.96,2.62,7.99,3.68,12.09c0.12,0.49,0.24,0.97,0.36,1.46c0.14,0.58,0.28,1.16,0.41,1.74c0.14,0.58,0.27,1.16,0.39,1.74
					c0.13,0.58,0.25,1.16,0.37,1.75c0.9,4.36,1.6,8.79,2.08,13.29c0.06,0.47,0.11,0.94,0.15,1.42c0.05,0.45,0.09,0.9,0.13,1.35
					c0.05,0.61,0.1,1.21,0.15,1.82c0.14,1.88,0.25,3.77,0.32,5.67c0.04,1.11,0.07,2.23,0.09,3.35c0.01,0.67,0.01,1.35,0.01,2.02
					c0,0.67,0,1.35-0.01,2.02c-0.02,1.12-0.05,2.24-0.09,3.35c-0.07,1.9-0.18,3.79-0.32,5.67c-0.05,0.61-0.1,1.21-0.15,1.82
					c-0.04,0.45-0.08,0.9-0.13,1.35c-0.04,0.48-0.09,0.95-0.15,1.42c-0.48,4.5-1.18,8.93-2.08,13.29c-0.12,0.59-0.24,1.17-0.37,1.75
					c-0.12,0.58-0.25,1.16-0.39,1.74c-0.13,0.58-0.27,1.16-0.41,1.74c-0.12,0.49-0.24,0.97-0.36,1.46
					c-1.06,4.1-2.28,8.13-3.68,12.09c-0.39,1.11-0.79,2.21-1.21,3.3c-0.01,0.03-0.02,0.06-0.03,0.08c-0.41,1.06-0.82,2.12-1.25,3.16
					c-0.51,1.26-1.05,2.51-1.6,3.75c-0.36,0.82-0.73,1.64-1.11,2.45c-2.24,4.83-4.75,9.5-7.5,14.02c-0.6,0.98-1.21,1.96-1.83,2.93
					c-0.75,1.17-1.52,2.34-2.31,3.49c-0.51,0.74-1.03,1.48-1.55,2.22c-0.34,0.48-0.68,0.95-1.03,1.43
					c-0.34,0.47-0.68,0.93-1.03,1.39c-0.31,0.42-0.63,0.84-0.95,1.26c-0.46,0.6-0.92,1.19-1.39,1.79c-1,1.25-2.01,2.49-3.04,3.71
					c-0.04,0.06-0.09,0.11-0.14,0.17c-1.07,1.25-2.16,2.5-3.27,3.72c-0.01,0.02-0.02,0.03-0.03,0.04c-1.54,1.69-3.12,3.34-4.73,4.95
					c-1.54,1.54-3.11,3.04-4.71,4.51c-0.09,0.08-0.18,0.17-0.28,0.25c-0.73,0.66-1.47,1.32-2.21,1.97
					c-0.12,0.11-0.25,0.22-0.37,0.32c-0.87,0.76-1.75,1.5-2.64,2.23c-3.11,2.57-6.32,5.01-9.64,7.3c-0.47,0.33-0.95,0.66-1.43,0.98
					c-0.47,0.32-0.95,0.65-1.44,0.96c-3.85,2.55-7.84,4.91-11.94,7.07c-0.45,0.24-0.91,0.48-1.37,0.71
					c-1.12,0.58-2.25,1.15-3.39,1.7c-0.49,0.23-0.98,0.46-1.48,0.69c-5.89,2.76-12,5.13-18.29,7.08c-0.46,0.14-0.92,0.28-1.38,0.41
					c-0.3,0.1-0.61,0.19-0.92,0.27c-0.52,0.16-1.04,0.3-1.56,0.45c-0.61,0.17-1.22,0.33-1.83,0.49c-0.53,0.14-1.06,0.28-1.58,0.41
					c-0.32,0.08-0.64,0.16-0.96,0.24c-0.58,0.14-1.16,0.28-1.73,0.41c-1.16,0.27-2.33,0.52-3.49,0.76
					c-0.59,0.12-1.17,0.24-1.76,0.35c-0.73,0.15-1.47,0.28-2.22,0.41c-0.57,0.1-1.14,0.2-1.71,0.29c-0.46,0.08-0.92,0.15-1.38,0.22
					c-1.19,0.18-2.38,0.35-3.58,0.5c-2.99,0.39-6.01,0.68-9.06,0.87c-0.57,0.04-1.15,0.07-1.72,0.1c-2.48,0.12-4.98,0.19-7.5,0.19
					c-2.52,0-5.02-0.07-7.5-0.2c-75.77-3.91-136.2-66.78-136.2-143.5s60.43-139.59,136.2-143.5v14.8h4.5v0.03
					c-69.59,1.6-125.7,58.7-125.7,128.67c0,69.96,56.11,127.07,125.7,128.67v0.03h3c1,0,2-0.01,3-0.03
					c69.59-1.6,125.71-58.71,125.71-128.67c0-69.97-56.12-127.07-125.71-128.67v-7.53h-3V120.84z"/>
				<rect x="408.3" y="128.34" class="st0" width="3" height="7.5"/>
				<path class="st0" d="M411.3,120.84v7.5h-3v7.5h-4.5v-14.8C406.28,120.91,408.78,120.84,411.3,120.84z"/>
				<path class="st0" d="M411.3,135.84c-1,0-2,0.01-3,0.03v-0.03H411.3z"/>
				<path class="st0" d="M411.3,393.24h-3v-0.03C409.3,393.23,410.3,393.24,411.3,393.24z"/>
			</g>
			<g>
			</g>
		</g>
	</g>
</g>
</svg>
